<?xml version="1.0" encoding="utf-8"?>
<!-- Generator: Adobe Illustrator 27.4.1, SVG Export Plug-In . SVG Version: 6.00 Build 0)  -->
<svg version="1.1" id="Layer_1" xmlns="http://www.w3.org/2000/svg" xmlns:xlink="http://www.w3.org/1999/xlink" x="0px" y="0px"
	 viewBox="0 0 371.2 229.8" style="enable-background:new 0 0 371.2 229.8;" xml:space="preserve">
<style type="text/css">
	.st0{opacity:0.19;}
	.st1{fill:#435961;}
	.st2{fill:#E2DEDF;}
	.st3{font-family:'PlayfairDisplaySC-Regular';}
	.st4{font-size:78.9971px;}
	.st5{letter-spacing:-3;}
	.st6{fill:#E2B228;}
	.st7{font-size:105.6184px;}
	.st8{letter-spacing:-5;}
	.st9{font-family:'DMSans-Regular';}
	.st10{font-size:15.7819px;}
	.st11{letter-spacing:3;}
</style>
<g class="st0">
	<path class="st1" d="M24.9,164.5c1.6-1.2,3.4-2.1,4-2.4c1.7-0.9,3-1.4,3.8-1.7c1.7-0.6,2.5-0.9,3.7-1c1.1-0.1,2.5-0.3,4.1,0.4
		c2,0.9,3,2.6,3.3,3.1c1,1.7,0.9,3.3,0.9,4.7c-0.1,4.3-2.1,7.4-3.1,8.8c-1.1,1.7-2.3,3.5-4.7,4.8c-1.4,0.7-2.6,0.9-4.8,1.3
		c-2.9,0.5-4.9,0.8-7.4,0.1c-1.4-0.4-3.6-1-5-3c-1.7-2.5-1-5.6-0.7-6.9C19.9,168.3,23.3,165.7,24.9,164.5z"/>
	<path class="st1" d="M52.8,159.7c1.9-1.9,3.4-3,4.3-3.5c1-0.6,2-1.2,3.5-1.6c1.4-0.3,2.6-0.2,3.5-0.1c1.5,0.2,2.7,0.3,4,1.2
		c0.4,0.3,1.7,1.2,2.3,2.9c0.5,1.4,0.2,2.7-0.3,4.5c-0.2,0.6-0.5,1.6-2.1,4.9c-1.2,2.4-1.7,3.6-2.5,4.9c-1.2,2-1.9,3.1-3.3,4.2
		c-0.7,0.6-2,1.5-3.9,2c-3.8,0.8-6.8-1.3-7.1-1.5c-2.5-1.8-3.2-4.4-3.4-5.5c-0.6-2.9,0.4-5.2,1.1-6.8
		C49.8,162.9,51.2,161.4,52.8,159.7z"/>
	<path class="st1" d="M80.2,168.6c0.8-0.1,3.5-0.4,6.1,1.5c0.4,0.3,2.7,1.9,3.4,5c0.7,3-0.6,5.5-1.7,7.5c-0.3,0.6-1.7,3.1-4.6,5.4
		c-1.2,0.9-3.1,2.3-5.9,2.9c-1.3,0.3-4.1,0.8-7.1-0.6c-0.9-0.5-3.7-2.1-4.7-5.5c-0.2-0.5-0.9-3.1,0.2-5.8c0.6-1.5,1.6-2.4,3.7-4.3
		c2.9-2.6,5.3-3.9,6-4.3C77.6,169.4,78.6,168.8,80.2,168.6z"/>
	<path class="st1" d="M71.8,194.6c2.1-0.3,3.5-0.2,6.3,0.1c3.5,0.3,5.3,0.5,6.4,1.3c0.3,0.2,2.7,1.8,3.3,4.8
		c0.5,2.6-0.5,4.6-1.3,6.3c-1,1.9-2.2,3.1-4.6,5.4c-1.9,1.8-3,2.9-4.8,3.9c-1.7,1-3.1,1.8-5.1,1.8c-3.3,0-5.6-2.1-6.2-2.6
		c-2.1-2-2.8-4.3-3.1-5.5c-1.1-4.1,0.2-7.6,0.7-8.7c0.6-1.5,1.7-4.1,4.3-5.6C69.1,195.1,70.3,194.9,71.8,194.6z"/>
	<path class="st1" d="M53,184.7c1.4,0.4,3.4,0.8,5.2,2.5c0.5,0.5,1.6,1.7,2,3.6c0.1,0.4,0.4,1.7-0.2,4.9c-0.5,2.8-0.9,3-1.4,5.3
		c-0.2,1-0.7,3.5-0.4,6.6c0.2,2.8,0.8,3.1,1.2,6.6c0.1,1.7,0.2,2.8-0.1,4.4c-0.2,0.9-0.6,2.8-2,4.6c-0.5,0.7-1.7,2.6-4,3.4
		c-0.5,0.2-1.7,0.6-4.7,0.5c-1.5-0.1-2.5,0-6.7-0.7c-2.9-0.5-4.9-1.6-6-2.1c-0.6-0.2-2.3-1-5.6-3.7c-4.6-3.8-7.4-7.4-8.1-8.4
		c-1.9-2.5-3.1-4.2-4.1-6.9c-1.6-4.4-1.3-7.9-1.2-8.7c0.4-3.6,1.7-5.7,2-6.1c1-1.6,2-2.3,2.3-2.5c0.7-0.4,1.6-1.1,3.4-1.3
		c2.4-0.3,3,0,4.8,0.1c0.4,0,4,0.1,7.7-1.2c2.8-1,3.3-2.1,6.7-2.9c1.8-0.5,4.1,0,5.1,0.3C49.9,183.3,51.1,184.2,53,184.7z"/>
</g>
<g class="st0">
	<path class="st1" d="M107.5,37.9c1.6-1.2,3.4-2.1,4-2.4c1.7-0.9,3-1.4,3.8-1.7c1.7-0.6,2.5-0.9,3.7-1c1.1-0.1,2.5-0.3,4.1,0.4
		c2,0.9,3,2.6,3.3,3.1c1,1.7,0.9,3.3,0.9,4.7c-0.1,4.3-2.1,7.4-3.1,8.8c-1.1,1.7-2.3,3.5-4.7,4.8c-1.4,0.7-2.6,0.9-4.8,1.3
		c-2.9,0.5-4.9,0.8-7.4,0.1c-1.4-0.4-3.6-1-5-3c-1.7-2.5-1-5.6-0.7-6.9C102.6,41.7,106,39.1,107.5,37.9z"/>
	<path class="st1" d="M135.5,33.2c1.9-1.9,3.4-3,4.3-3.5c1-0.6,2-1.2,3.5-1.6c1.4-0.3,2.6-0.2,3.5-0.1c1.5,0.2,2.7,0.3,4,1.2
		c0.4,0.3,1.7,1.2,2.3,2.9c0.5,1.4,0.2,2.7-0.3,4.5c-0.2,0.6-0.5,1.6-2.1,4.9c-1.2,2.4-1.7,3.6-2.5,4.9c-1.2,2-1.9,3.1-3.3,4.2
		c-0.7,0.6-2,1.5-3.9,2c-3.8,0.8-6.8-1.3-7.1-1.5c-2.5-1.8-3.2-4.4-3.4-5.5c-0.6-2.9,0.4-5.2,1.1-6.8
		C132.5,36.3,133.9,34.8,135.5,33.2z"/>
	<path class="st1" d="M162.9,42.1c0.8-0.1,3.5-0.4,6.1,1.5c0.4,0.3,2.7,1.9,3.4,5c0.7,3-0.6,5.5-1.7,7.5c-0.3,0.6-1.7,3.1-4.6,5.4
		c-1.2,0.9-3.1,2.3-5.9,2.9c-1.3,0.3-4.1,0.8-7.1-0.6c-0.9-0.5-3.7-2.1-4.7-5.5c-0.2-0.5-0.9-3.1,0.2-5.8c0.6-1.5,1.6-2.4,3.7-4.3
		c2.9-2.6,5.3-3.9,6-4.3C160.3,42.8,161.3,42.3,162.9,42.1z"/>
	<path class="st1" d="M154.4,68.1c2.1-0.3,3.5-0.2,6.3,0.1c3.5,0.3,5.3,0.5,6.4,1.3c0.3,0.2,2.7,1.8,3.3,4.8
		c0.5,2.6-0.5,4.6-1.3,6.3c-1,1.9-2.2,3.1-4.6,5.4c-1.9,1.8-3,2.9-4.8,3.9c-1.7,1-3.1,1.8-5.1,1.8c-3.3,0-5.6-2.1-6.2-2.6
		c-2.1-2-2.8-4.3-3.1-5.5c-1.1-4.1,0.2-7.6,0.7-8.7c0.6-1.5,1.7-4.1,4.3-5.6C151.7,68.5,152.9,68.3,154.4,68.1z"/>
	<path class="st1" d="M135.7,58.2c1.4,0.4,3.4,0.8,5.2,2.5c0.5,0.5,1.6,1.7,2,3.6c0.1,0.4,0.4,1.7-0.2,4.9c-0.5,2.8-0.9,3-1.4,5.3
		c-0.2,1-0.7,3.5-0.4,6.6c0.2,2.8,0.8,3.1,1.2,6.6c0.1,1.7,0.2,2.8-0.1,4.4c-0.2,0.9-0.6,2.8-2,4.6c-0.5,0.7-1.7,2.6-4,3.4
		c-0.5,0.2-1.7,0.6-4.7,0.5c-1.5-0.1-2.5,0-6.7-0.7c-2.9-0.5-4.9-1.6-6-2.1c-0.6-0.2-2.3-1-5.6-3.7c-4.6-3.8-7.4-7.4-8.1-8.4
		c-1.9-2.5-3.1-4.2-4.1-6.9c-1.6-4.4-1.3-7.9-1.2-8.7c0.4-3.6,1.7-5.7,2-6.1c1-1.6,2-2.3,2.3-2.5c0.7-0.4,1.6-1.1,3.4-1.3
		c2.4-0.3,3,0,4.8,0.1c0.4,0,4,0.1,7.7-1.2c2.8-1,3.3-2.1,6.7-2.9c1.8-0.5,4.1,0,5.1,0.3C132.6,56.8,133.7,57.6,135.7,58.2z"/>
</g>
<g class="st0">
	<path class="st1" d="M302.5,13.5c1.6-1.2,3.4-2.1,4-2.4c1.7-0.9,3-1.4,3.8-1.7c1.7-0.6,2.5-0.9,3.7-1c1.1-0.1,2.5-0.3,4.1,0.4
		c2,0.9,3,2.6,3.3,3.1c1,1.7,0.9,3.3,0.9,4.7c-0.1,4.3-2.1,7.4-3.1,8.8c-1.1,1.7-2.3,3.5-4.7,4.8c-1.4,0.7-2.6,0.9-4.8,1.3
		c-2.9,0.5-4.9,0.8-7.4,0.1c-1.4-0.4-3.6-1-5-3c-1.7-2.5-1-5.6-0.7-6.9C297.6,17.3,301,14.7,302.5,13.5z"/>
	<path class="st1" d="M330.5,8.8c1.9-1.9,3.4-3,4.3-3.5c1-0.6,2-1.2,3.5-1.6c1.4-0.3,2.6-0.2,3.5-0.1c1.5,0.2,2.7,0.3,4,1.2
		c0.4,0.3,1.7,1.2,2.3,2.9c0.5,1.4,0.2,2.7-0.3,4.5c-0.2,0.6-0.5,1.6-2.1,4.9c-1.2,2.4-1.7,3.6-2.5,4.9c-1.2,2-1.9,3.1-3.3,4.2
		c-0.7,0.6-2,1.5-3.9,2c-3.8,0.8-6.8-1.3-7.1-1.5c-2.5-1.8-3.2-4.4-3.4-5.5c-0.6-2.9,0.4-5.2,1.1-6.8
		C327.5,11.9,328.9,10.4,330.5,8.8z"/>
	<path class="st1" d="M357.9,17.7c0.8-0.1,3.5-0.4,6.1,1.5c0.4,0.3,2.7,1.9,3.4,5c0.7,3-0.6,5.5-1.7,7.5c-0.3,0.6-1.7,3.1-4.6,5.4
		c-1.2,0.9-3.1,2.3-5.9,2.9c-1.3,0.3-4.1,0.8-7.1-0.6c-0.9-0.5-3.7-2.1-4.7-5.5c-0.2-0.5-0.9-3.1,0.2-5.8c0.6-1.5,1.6-2.4,3.7-4.3
		c2.9-2.6,5.3-3.9,6-4.3C355.3,18.4,356.3,17.9,357.9,17.7z"/>
	<path class="st1" d="M349.4,43.7c2.1-0.3,3.5-0.2,6.3,0.1c3.5,0.3,5.3,0.5,6.4,1.3c0.3,0.2,2.7,1.8,3.3,4.8
		c0.5,2.6-0.5,4.6-1.3,6.3c-1,1.9-2.2,3.1-4.6,5.4c-1.9,1.8-3,2.9-4.8,3.9c-1.7,1-3.1,1.8-5.1,1.8c-3.3,0-5.6-2.1-6.2-2.6
		c-2.1-2-2.8-4.3-3.1-5.5c-1.1-4.1,0.2-7.6,0.7-8.7c0.6-1.5,1.7-4.1,4.3-5.6C346.7,44.1,347.9,43.9,349.4,43.7z"/>
	<path class="st1" d="M330.7,33.7c1.4,0.4,3.4,0.8,5.2,2.5c0.5,0.5,1.6,1.7,2,3.6c0.1,0.4,0.4,1.7-0.2,4.9c-0.5,2.8-0.9,3-1.4,5.3
		c-0.2,1-0.7,3.5-0.4,6.6c0.2,2.8,0.8,3.1,1.2,6.6c0.1,1.7,0.2,2.8-0.1,4.4c-0.2,0.9-0.6,2.8-2,4.6c-0.5,0.7-1.7,2.6-4,3.4
		c-0.5,0.2-1.7,0.6-4.7,0.5c-1.5-0.1-2.5,0-6.7-0.7c-2.9-0.5-4.9-1.6-6-2.1c-0.6-0.2-2.3-1-5.6-3.7c-4.6-3.8-7.4-7.4-8.1-8.4
		c-1.9-2.5-3.1-4.2-4.1-6.9c-1.6-4.4-1.3-7.9-1.2-8.7c0.4-3.6,1.7-5.7,2-6.1c1-1.6,2-2.3,2.3-2.5c0.7-0.4,1.6-1.1,3.4-1.3
		c2.4-0.3,3,0,4.8,0.1c0.4,0,4,0.1,7.7-1.2c2.8-1,3.3-2.1,6.7-2.9c1.8-0.5,4.1,0,5.1,0.3C327.6,32.4,328.7,33.2,330.7,33.7z"/>
</g>
<text transform="matrix(1 0 0 1 22.7476 97.0646)" class="st2 st3 st4 st5">WHISKER</text>
<text transform="matrix(1 0 0 1 77.3345 173.1634)" class="st2 st3 st4 st5">WOOF</text>
<text transform="matrix(0.9453 -0.3263 0.3263 0.9453 10.3612 185.391)" class="st6 st3 st7 st8">&amp;</text>
<text transform="matrix(1 0 0 1 22.1954 203.7152)" class="st2 st9 st10 st11">OUTSTANDING VETERINARY CARE</text>
</svg>
