<?xml version="1.0" encoding="UTF-8"?>
<svg id="Layer_1" data-name="Layer 1" xmlns="http://www.w3.org/2000/svg" viewBox="0 0 1644.09 155.91">
  <defs>
    <style>
      .cls-1 {
        fill: #fff;
      }
    </style>
  </defs>
  <path class="cls-1" d="m70.4,78.05c0-14.02,8.78-24.43,22.59-24.43s22.53,10.41,22.53,24.43-8.71,24.36-22.53,24.36-22.59-10.35-22.59-24.36Zm35.43,0c0-9.37-4.19-16.64-12.77-16.64s-12.97,7.27-12.97,16.64,4.39,16.57,12.97,16.57,12.77-7.27,12.77-16.57Zm32.82,8.25v-31.76h9.5v31.76c0,4.85,2.42,8.25,8.78,8.25,6.03,0,8.84-3.54,8.84-8.38v-31.63h9.5v31.76c0,10.02-6.16,15.85-18.14,15.85s-18.47-5.7-18.47-15.85Zm59.35-31.76h37.66v7.99h-14.08v38.84h-9.5v-38.84h-14.08v-7.99Zm58.03,32.35h9.3c.65,5.63,3.86,7.86,10.54,7.86,4.85,0,9.1-1.7,9.1-6.03,0-4.58-4.45-5.5-11.59-7.14-8.38-1.9-16.04-4.13-16.04-13.88,0-9.23,7.53-14.02,17.94-14.02s17.36,5.17,18.08,14.6h-9.1c-.52-4.72-4.19-7.07-9.04-7.07-5.11,0-8.45,2.16-8.45,5.5,0,3.8,3.27,4.91,10.22,6.42,9.63,2.1,17.49,4.39,17.49,14.47,0,9.5-7.66,14.8-18.21,14.8-12.71,0-19.91-5.63-20.24-15.52Zm58.1-32.35h37.66v7.99h-14.08v38.84h-9.5v-38.84h-14.08v-7.99Zm67.79,0h9.82l16.5,46.83h-9.89l-3.14-9.95h-16.9l-3.08,9.95h-9.63l16.31-46.83Zm-1.37,29.6h12.38l-4.19-13.49c-.79-2.49-1.9-7.2-1.9-7.2h-.13s-1.18,4.72-1.96,7.2l-4.19,13.49Zm49.98-29.6h9.63l15.59,26.13c1.51,2.55,3.27,6.55,3.27,6.55h.13s-.26-4.85-.26-8.12v-24.56h9.36v46.83h-9.17l-15.98-25.87c-1.51-2.49-3.34-6.48-3.34-6.48h-.13s.26,4.91.26,8.19v24.17h-9.37v-46.83Zm63.27,0h18.27c12.51,0,20.56,10.09,20.56,23.9,0,7.6-2.55,14.28-7.47,18.4-3.47,2.88-7.99,4.52-13.88,4.52h-17.49v-46.83Zm16.83,38.64c8.91,0,12.38-5.44,12.38-14.74s-4.06-15.78-12.12-15.78h-7.6v30.52h7.34Zm45.59-38.64h9.5v46.83h-9.5v-46.83Zm35.11,0h9.63l15.59,26.13c1.51,2.55,3.27,6.55,3.27,6.55h.13s-.26-4.85-.26-8.12v-24.56h9.36v46.83h-9.17l-15.98-25.87c-1.51-2.49-3.34-6.48-3.34-6.48h-.13s.26,4.91.26,8.19v24.17h-9.37v-46.83Zm97.26,40.54h-.13c-3.21,5.37-7.6,7.27-13.16,7.27-7.07,0-12.57-2.55-16.44-6.81-3.86-4.32-6.09-10.35-6.09-17.42,0-7.79,2.75-14.6,7.66-19.12,3.8-3.47,8.78-5.37,15.06-5.37,11.79,0,18.53,6.48,20.04,15.65h-9.3c-1.05-4.52-4.52-7.79-10.54-7.79-8.84,0-13.23,7.33-13.23,16.63s5.04,16.57,13.1,16.57c7.27,0,12.05-5.44,12.05-10.61v-.26h-11.26v-7.34h19.71v24.89h-7.14l-.33-6.29Zm58.83-40.54h6.35l11.53,34.84c.72,2.16,1.83,6.29,1.83,6.29h.13s1.11-4.19,1.83-6.29l11.4-34.84h6.16l-16.44,46.83h-6.48l-16.31-46.83Zm62.62,0h33.07v5.17h-27.18v14.8h24.69v4.98h-24.69v16.44h27.96v5.44h-33.86v-46.83Zm56.13,0h37.07v5.17h-15.59v41.65h-5.89v-41.65h-15.59v-5.17Zm61.24,0h33.07v5.17h-27.18v14.8h24.69v4.98h-24.69v16.44h27.96v5.44h-33.86v-46.83Zm59.08,0h21.87c8.25,0,13.82,5.17,13.82,12.84,0,5.7-2.49,9.76-8.12,11.59v.2c4.78,1.7,6.29,4.98,6.75,11.92.52,7.53,1.31,9.43,2.16,10.02v.26h-6.35c-.98-.85-1.18-2.62-1.7-10.48-.46-6.88-3.21-9.3-9.5-9.3h-13.03v19.78h-5.89v-46.83Zm5.89,22.27h13.88c6.55,0,9.82-3.28,9.82-8.58,0-5.7-2.62-8.58-9.5-8.58h-14.21v17.16Zm55.41-22.27h5.89v46.83h-5.89v-46.83Zm33.14,0h6.22l21.35,32.55c1.57,2.42,3.41,6.03,3.41,6.03h.13v-38.57h5.5v46.83h-6.03l-21.48-32.61c-1.51-2.29-3.47-5.83-3.47-5.83h-.13v38.44h-5.5v-46.83Zm77.22,0h6.62l17.29,46.83h-6.42l-4.98-14.28h-18.66l-5.04,14.28h-6.03l17.22-46.83Zm-4.45,27.77h15.33l-5.37-15.72c-.92-2.62-2.1-6.62-2.1-6.62h-.13s-1.24,3.93-2.16,6.62l-5.57,15.72Zm51.75-27.77h21.87c8.25,0,13.82,5.17,13.82,12.84,0,5.7-2.49,9.76-8.12,11.59v.2c4.78,1.7,6.29,4.98,6.75,11.92.52,7.53,1.31,9.43,2.16,10.02v.26h-6.35c-.98-.85-1.18-2.62-1.7-10.48-.46-6.88-3.21-9.3-9.5-9.3h-13.03v19.78h-5.89v-46.83Zm5.89,22.27h13.88c6.55,0,9.82-3.28,9.82-8.58,0-5.7-2.62-8.58-9.5-8.58h-14.21v17.16Zm67.53,4.72l-16.96-26.98h6.55l13.43,22.27h.13l13.62-22.27h6.29l-17.16,27.11v19.71h-5.89v-19.84Zm73.43-3.6c0-13.75,8.25-24.43,22.2-24.43,10.94,0,17.55,6.29,18.8,14.93h-5.76c-1.11-5.83-5.76-9.82-13.16-9.82-10.28,0-16.05,8.32-16.05,19.32s6.35,19.19,16.11,19.19c8.84,0,13.03-6.03,13.62-12.9h5.83c-.06,4.65-2.29,9.89-5.63,13.16-3.27,3.21-8.05,4.91-14.02,4.91-13.29,0-21.94-10.15-21.94-24.36Zm79.06-23.38h6.62l17.29,46.83h-6.42l-4.98-14.28h-18.66l-5.04,14.28h-6.03l17.22-46.83Zm-4.45,27.77h15.33l-5.37-15.72c-.92-2.62-2.1-6.62-2.1-6.62h-.13s-1.24,3.93-2.16,6.62l-5.57,15.72Zm51.75-27.77h21.87c8.25,0,13.82,5.17,13.82,12.84,0,5.7-2.49,9.76-8.12,11.59v.2c4.78,1.7,6.29,4.98,6.75,11.92.52,7.53,1.31,9.43,2.16,10.02v.26h-6.35c-.98-.85-1.18-2.62-1.7-10.48-.46-6.88-3.21-9.3-9.5-9.3h-13.03v19.78h-5.89v-46.83Zm5.89,22.27h13.88c6.55,0,9.82-3.28,9.82-8.58,0-5.7-2.62-8.58-9.5-8.58h-14.21v17.16Zm55.28-22.27h33.07v5.17h-27.18v14.8h24.69v4.98h-24.69v16.44h27.96v5.44h-33.86v-46.83Z"/>
</svg>