<?xml version="1.0" encoding="UTF-8"?>
<svg id="Layer_1" data-name="Layer 1" xmlns="http://www.w3.org/2000/svg" viewBox="0 0 1644.09 510.24">
  <path d="m246.53,381.17c0-9.75,6.1-16.99,15.71-16.99s15.67,7.24,15.67,16.99-6.06,16.94-15.67,16.94-15.71-7.2-15.71-16.94Zm24.64,0c0-6.51-2.92-11.57-8.88-11.57s-9.02,5.06-9.02,11.57,3.05,11.52,9.02,11.52,8.88-5.06,8.88-11.52Zm22.83,5.74v-22.09h6.6v22.09c0,3.37,1.69,5.74,6.1,5.74,4.19,0,6.15-2.46,6.15-5.83v-22h6.6v22.09c0,6.97-4.28,11.02-12.62,11.02s-12.84-3.96-12.84-11.02Zm41.27-22.09h26.19v5.56h-9.79v27.01h-6.6v-27.01h-9.79v-5.56Zm40.36,22.5h6.47c.46,3.92,2.69,5.47,7.33,5.47,3.37,0,6.33-1.18,6.33-4.19,0-3.19-3.1-3.83-8.06-4.96-5.83-1.32-11.16-2.87-11.16-9.66,0-6.42,5.24-9.75,12.48-9.75s12.07,3.6,12.57,10.16h-6.33c-.36-3.28-2.92-4.92-6.29-4.92-3.55,0-5.88,1.5-5.88,3.83,0,2.64,2.28,3.42,7.11,4.46,6.7,1.46,12.16,3.05,12.16,10.07,0,6.6-5.33,10.29-12.66,10.29-8.84,0-13.85-3.92-14.07-10.79Zm40.41-22.5h26.19v5.56h-9.79v27.01h-6.6v-27.01h-9.79v-5.56Zm47.15,0h6.83l11.48,32.57h-6.88l-2.19-6.92h-11.75l-2.14,6.92h-6.7l11.34-32.57Zm-.96,20.59h8.61l-2.92-9.38c-.55-1.73-1.32-5.01-1.32-5.01h-.09s-.82,3.28-1.37,5.01l-2.92,9.38Zm34.76-20.59h6.7l10.84,18.17c1.05,1.78,2.28,4.55,2.28,4.55h.09s-.18-3.37-.18-5.65v-17.08h6.51v32.57h-6.38l-11.11-17.99c-1.05-1.73-2.32-4.51-2.32-4.51h-.09s.18,3.42.18,5.69v16.81h-6.51v-32.57Zm44,0h12.71c8.7,0,14.3,7.01,14.3,16.62,0,5.28-1.78,9.93-5.19,12.8-2.41,2-5.56,3.14-9.66,3.14h-12.16v-32.57Zm11.71,26.87c6.19,0,8.61-3.78,8.61-10.25s-2.82-10.98-8.43-10.98h-5.28v21.23h5.1Zm31.71-26.87h6.6v32.57h-6.6v-32.57Zm24.42,0h6.7l10.84,18.17c1.05,1.78,2.28,4.55,2.28,4.55h.09s-.18-3.37-.18-5.65v-17.08h6.51v32.57h-6.38l-11.11-17.99c-1.05-1.73-2.32-4.51-2.32-4.51h-.09s.18,3.42.18,5.69v16.81h-6.51v-32.57Zm67.64,28.19h-.09c-2.23,3.73-5.28,5.06-9.15,5.06-4.92,0-8.75-1.78-11.43-4.74-2.69-3.01-4.24-7.2-4.24-12.12,0-5.42,1.91-10.16,5.33-13.3,2.64-2.41,6.1-3.73,10.48-3.73,8.2,0,12.89,4.51,13.94,10.89h-6.47c-.73-3.14-3.14-5.42-7.33-5.42-6.15,0-9.2,5.1-9.2,11.57s3.51,11.52,9.11,11.52c5.06,0,8.38-3.78,8.38-7.38v-.18h-7.83v-5.1h13.71v17.31h-4.96l-.23-4.37Zm40.91-28.19h4.42l8.02,24.23c.5,1.5,1.28,4.37,1.28,4.37h.09s.77-2.92,1.27-4.37l7.93-24.23h4.28l-11.43,32.57h-4.51l-11.34-32.57Zm43.55,0h23v3.6h-18.9v10.29h17.17v3.46h-17.17v11.43h19.45v3.78h-23.55v-32.57Zm39.04,0h25.78v3.6h-10.84v28.97h-4.1v-28.97h-10.84v-3.6Zm42.59,0h23v3.6h-18.9v10.29h17.17v3.46h-17.17v11.43h19.45v3.78h-23.55v-32.57Zm41.09,0h15.21c5.74,0,9.61,3.6,9.61,8.93,0,3.96-1.73,6.79-5.65,8.06v.14c3.32,1.18,4.37,3.46,4.69,8.29.36,5.24.91,6.56,1.5,6.97v.18h-4.42c-.68-.59-.82-1.82-1.18-7.29-.32-4.78-2.23-6.47-6.6-6.47h-9.06v13.76h-4.1v-32.57Zm4.1,15.49h9.66c4.55,0,6.83-2.28,6.83-5.97,0-3.96-1.82-5.97-6.6-5.97h-9.88v11.93Zm38.54-15.49h4.1v32.57h-4.1v-32.57Zm23.05,0h4.33l14.85,22.64c1.09,1.69,2.37,4.19,2.37,4.19h.09v-26.83h3.83v32.57h-4.19l-14.94-22.68c-1.05-1.59-2.41-4.05-2.41-4.05h-.09v26.74h-3.83v-32.57Zm53.71,0h4.6l12.02,32.57h-4.46l-3.46-9.93h-12.98l-3.51,9.93h-4.19l11.98-32.57Zm-3.1,19.31h10.66l-3.73-10.93c-.64-1.82-1.46-4.6-1.46-4.6h-.09s-.87,2.73-1.5,4.6l-3.87,10.93Zm35.99-19.31h15.21c5.74,0,9.61,3.6,9.61,8.93,0,3.96-1.73,6.79-5.65,8.06v.14c3.32,1.18,4.37,3.46,4.69,8.29.36,5.24.91,6.56,1.5,6.97v.18h-4.42c-.68-.59-.82-1.82-1.18-7.29-.32-4.78-2.23-6.47-6.6-6.47h-9.06v13.76h-4.1v-32.57Zm4.1,15.49h9.66c4.55,0,6.83-2.28,6.83-5.97,0-3.96-1.82-5.97-6.6-5.97h-9.88v11.93Zm46.96,3.28l-11.8-18.77h4.55l9.34,15.49h.09l9.47-15.49h4.37l-11.93,18.86v13.71h-4.1v-13.8Zm51.07-2.51c0-9.56,5.74-16.99,15.44-16.99,7.61,0,12.21,4.37,13.07,10.39h-4.01c-.77-4.05-4.01-6.83-9.15-6.83-7.15,0-11.16,5.78-11.16,13.44s4.42,13.35,11.2,13.35c6.15,0,9.06-4.19,9.47-8.97h4.05c-.04,3.23-1.59,6.88-3.92,9.16-2.28,2.23-5.6,3.42-9.75,3.42-9.25,0-15.26-7.06-15.26-16.94Zm54.98-16.26h4.6l12.02,32.57h-4.46l-3.46-9.93h-12.98l-3.51,9.93h-4.19l11.98-32.57Zm-3.1,19.31h10.66l-3.73-10.93c-.64-1.82-1.46-4.6-1.46-4.6h-.09s-.87,2.73-1.5,4.6l-3.87,10.93Zm35.99-19.31h15.21c5.74,0,9.61,3.6,9.61,8.93,0,3.96-1.73,6.79-5.65,8.06v.14c3.32,1.18,4.37,3.46,4.69,8.29.36,5.24.91,6.56,1.5,6.97v.18h-4.42c-.68-.59-.82-1.82-1.18-7.29-.32-4.78-2.23-6.47-6.6-6.47h-9.06v13.76h-4.1v-32.57Zm4.1,15.49h9.66c4.55,0,6.83-2.28,6.83-5.97,0-3.96-1.82-5.97-6.6-5.97h-9.88v11.93Zm38.45-15.49h23v3.6h-18.9v10.29h17.17v3.46h-17.17v11.43h19.45v3.78h-23.55v-32.57ZM190.98,275.25h.22l30.44-103.72h7.4l29.57,103.94,33.92-103.94h6.74l-36.97,112.42h-7.61l-29.35-102.42h-.22l-30.01,102.42h-8.04l-35.23-112.42h6.96l32.18,103.72Zm128.52-83.5h.44c6.52-11.31,19.14-21.96,40.44-21.96,22.4,0,35.23,13.7,35.23,33.71v80.45h-6.74v-79.8c0-19.14-11.31-28.48-29.57-28.48-22.83,0-39.79,15.87-39.79,32.83v75.45h-6.52v-155.47h6.52v63.28Zm105.04-47.62h-6.52v-14.57h6.52v14.57Zm0,139.82h-6.52v-112.42h6.52v112.42Zm22.61-34.57c1.74,19.79,15.01,31.1,38.93,31.1,22.4,0,35.23-10.22,35.23-25.88s-8.48-21.75-36.1-26.75c-27.18-4.78-40.23-12.39-40.23-29.79s13.7-28.49,37.84-28.49c26.75,0,37.84,13.92,40.66,32.4h-6.52c-2.39-16.09-12.61-26.53-34.14-26.53s-31.31,9.78-31.31,22.61,9.35,19.35,35.88,23.92c27.4,4.78,40.44,12.39,40.44,32.62s-16.31,31.53-41.75,31.53c-29.57,0-44.14-15.65-45.45-36.75h6.52Zm127.21-30.01l-23.48,22.83v41.75h-6.52v-155.47h6.52v105.89l64.36-62.84h8.48l-44.79,43.49,51.53,68.93h-7.61l-48.49-64.58Zm59.8,8.05c.22,30.44,15.44,52.84,44.58,52.84,20.44,0,33.49-10.87,38.71-29.36h6.52c-4.35,19.57-19.57,35.23-45.23,35.23-33.27,0-51.1-25.01-51.1-59.14s18.92-57.41,50.23-57.41c11.74,0,21.53,3.7,28.92,10,12.39,10.44,18.05,26.96,18.48,47.84h-91.11Zm43.71-51.97c-24.57,0-41.97,18.26-43.49,46.53h84.15c-1.74-30.01-17.61-46.53-40.66-46.53Zm112.86,2.17c-4.13-.44-8.26-.44-12.39.44-17.83,2.61-29.79,19.79-29.79,35.44v70.45h-6.52v-112.42h6.52v22.83h.43c5.87-12.39,15.88-19.79,27.18-21.53,5-1.74,10.22-1.96,14.57-1.52v6.31Zm17.94,56.14c0-30.89,21.73-62.26,51.41-62.26,6.76,0,11.34,1.44,14.25,3.38,7-11.35,12.3-22.93,12.3-29.68,0-2.9-.96-4.11-5.07-5.32-2.89-.96-6.03-1.69-9.65-2.41.96-8.93,4.11-15.45,10.87-15.45,6.27,0,10.38,6.03,10.38,15.2,0,17.37-19.06,48.51-36.2,67.57-16.43,18.59-25.84,27.28-34.53,35,6.29,17.14,21.24,28.72,43.21,28.72,42.23,0,58.87-41.75,62.25-70.23-1.93-.72-3.85-1.69-6.03-2.65-13.26-6.03-18.83-8.45-22.21-8.45-1.69,0-2.4.48-2.4,1.21,0,.48.47,1.21,2.16,3.38l4.83,6.28c.96,1.21,1.2,1.93,1.2,2.41,0,2.17-2.89,5.07-7.72,5.07s-7.49-2.9-7.49-7.24c0-1.69.26-4.82,4.6-11.1,2.65-3.86,7.23-9.89,14.72-9.89,4.34,0,8.92,1.21,18.83,5.32,16.17,6.51,23.64,7.96,27.51,7.96,2.65,0,3.38-.96,3.38-1.44,0-.73-.49-1.21-2.91-4.34l-4.34-5.32c-1.69-2.17-2.16-2.89-2.16-4.1,0-2.42,4.11-5.8,9.65-5.8,5.07,0,7.72,3.14,7.72,7.72,0,1.94-.24,6.03-5.54,13.52-2.65,3.86-8.21,11.82-16.41,11.82-3.14,0-6.52-.24-14.97-3.37-3.85,33.3-17.61,86.88-69.01,86.88-28.24,0-52.63-18.83-52.63-52.37Zm12.55,2.65c8.7-7.96,21.49-21.23,32.83-33.79,3.62-4.1,7.72-8.92,11.59-14.47-1.95-5.55-7.72-10.62-16.41-10.62-14.74,0-30.18,17.85-30.18,42.71,0,5.55.73,11.1,2.17,16.17Zm304.22,4.11c5.8-11.81,8.45-25.33,8.45-32.09,0-4.11-.49-5.56-7-7.96l-7.49-2.65c-7-2.42-7.96-4.83-7.96-9.9,0-9.18,6.27-20.75,16.88-20.75,7.02,0,14.25,5.54,14.25,21.71,0,12.79-5.54,37.65-15.45,58.17-11.83,23.17-26.78,39.34-44.41,39.34-14.48,0-22.68-13.52-23.4-29.2-13.03,18.57-26.55,29.2-39.81,29.2-17.14,0-25.11-14.25-25.11-28.24,0-3.87.73-8.94,3.64-14.72,4.58-8.94,14.95-20.75,32.56-35.96l11.59-9.41-.24-.49h-28c-9.41,0-13.26,2.18-16.17,8.21-1.69,3.12-3.12,7.49-4.58,13.52h-2.18c2.42-13.76,6.29-35.23,15.21-44.18,3.62-3.62,7.72-4.58,21.01-4.58h35.71l.24,1.2-18.57,29.93c-12.32,19.79-18.1,30.66-18.1,41.99,0,12.07,5.78,21.97,14.95,21.97s20.28-15.21,26.31-27.51c8.19-16.17,10.61-25.35,11.34-46.1-.73-11.1,0-17.63,1.45-20.28,1.2-2.65,3.85-3.85,7-3.85,7.96,0,13.76,4.34,13.76,8.45,0,2.89-2.65,8.43-8.45,18.1-11.1,17.84-12.79,23.4-12.79,34.51,0,18.83,9.65,35.71,21.71,35.71,7.98,0,15.94-8.69,23.66-24.13Zm22.43,7c0-33.54,24.86-79.39,67.09-79.39,25.59,0,37.89,17.37,37.89,38.85,0,33.54-24.86,79.41-67.09,79.41-25.59,0-37.89-17.63-37.89-38.87Zm55.26,10.63c11.36-22.7,22.93-58.4,22.93-76.76,0-7.23-2.16-10.38-6.52-10.38-7.47,0-14.95,11.59-21.95,25.35-11.34,22.68-22.93,58.4-22.93,76.74,0,7.25,2.18,10.14,6.52,10.14,7.47,0,14.95-11.34,21.95-25.09Zm58.01-10.63c0-33.54,24.86-79.39,67.11-79.39,25.57,0,37.89,17.37,37.89,38.85,0,33.54-24.86,79.41-67.09,79.41-25.59,0-37.91-17.63-37.91-38.87Zm55.28,10.63c11.34-22.7,22.93-58.4,22.93-76.76,0-7.23-2.18-10.38-6.52-10.38-7.49,0-14.95,11.59-21.97,25.35-11.34,22.68-22.91,58.4-22.91,76.74,0,7.25,2.16,10.14,6.5,10.14,7.49,0,14.97-11.34,21.97-25.09Zm4.51,64.93c0-8.94,7.23-15.45,14.72-15.45,3.12,0,4.58.96,7.49,6.03l6.74,13.99c1.95,3.85,3.14,4.81,4.34,4.81,2.67,0,4.83-5.31,10.63-28.95l26.55-110.07c1.2-4.58,2.16-8.69,3.12-12.54h-17.61l3.62-9.18h16.41c3.38-12.54,6.52-20.99,10.14-27.98,7.23-14.74,24.37-31.62,51.17-31.62,15.92,0,34.02,6.27,34.02,21.22,0,8.94-7.23,16.66-14.95,16.66-4.83,0-6.76-2.18-9.41-8.45l-9.18-20.99c-1.69-3.14-2.65-4.6-5.07-4.6-4.81,0-12.07,5.8-19.06,33.07l-5.54,22.68h27.51l-3.64,9.18h-26.29l-16.9,69.01c-10.38,41.27-24.37,61.06-37.16,73.85-8.94,8.94-19.55,15.21-32.11,15.21-13.26,0-19.53-7-19.53-15.92Z"/>
</svg>