<?xml version="1.0" encoding="UTF-8"?>
<svg id="Layer_1" data-name="Layer 1" xmlns="http://www.w3.org/2000/svg" xmlns:xlink="http://www.w3.org/1999/xlink" viewBox="0 0 1644.09 155.91">
  <defs>
    <style>
      .cls-1 {
        fill: url(#linear-gradient);
      }
    </style>
    <linearGradient id="linear-gradient" x1="1573.7" y1="-3113.16" x2="70.4" y2="-3113.16" gradientTransform="translate(0 -3035.2) scale(1 -1)" gradientUnits="userSpaceOnUse">
      <stop offset="0" stop-color="#ffda4e"/>
      <stop offset=".32" stop-color="#ecba25"/>
      <stop offset=".68" stop-color="#d8a628"/>
      <stop offset="1" stop-color="#fbf28b"/>
      <stop offset="1" stop-color="#f4be1f"/>
    </linearGradient>
  </defs>
  <path class="cls-1" d="m70.4,78.05c0-14.02,8.77-24.43,22.59-24.43s22.53,10.41,22.53,24.43-8.71,24.36-22.53,24.36-22.59-10.35-22.59-24.36Zm35.43,0c0-9.36-4.2-16.64-12.77-16.64s-12.97,7.28-12.97,16.64,4.39,16.56,12.97,16.56,12.77-7.28,12.77-16.56Zm32.83,8.25v-31.76h9.49v31.76c0,4.85,2.43,8.25,8.77,8.25s8.84-3.54,8.84-8.38v-31.63h9.49v31.76c0,10.02-6.15,15.85-18.15,15.85s-18.46-5.69-18.46-15.85h.01Zm59.34-31.76h37.66v7.99h-14.08v38.84h-9.49v-38.84h-14.08v-7.99h-.01Zm58.03,32.35h9.3c.66,5.64,3.87,7.87,10.54,7.87,4.85,0,9.1-1.7,9.1-6.02,0-4.59-4.46-5.51-11.59-7.13-8.38-1.9-16.05-4.13-16.05-13.89,0-9.23,7.53-14.02,17.94-14.02s17.36,5.18,18.07,14.61h-9.1c-.52-4.72-4.2-7.07-9.04-7.07-5.1,0-8.45,2.16-8.45,5.51,0,3.8,3.28,4.92,10.22,6.41,9.63,2.1,17.48,4.39,17.48,14.48,0,9.49-7.66,14.8-18.2,14.8-12.71,0-19.91-5.64-20.23-15.51h0Zm58.1-32.35h37.66v7.99h-14.08v38.84h-9.49v-38.84h-14.08v-7.99h-.01Zm67.8,0h9.82l16.51,46.83h-9.89l-3.15-9.95h-16.89l-3.08,9.95h-9.63l16.31-46.83h.01Zm-1.38,29.61h12.38l-4.2-13.49c-.79-2.49-1.9-7.2-1.9-7.2h-.13s-1.18,4.72-1.97,7.2l-4.2,13.49h.01Zm49.98-29.61h9.63l15.59,26.13c1.51,2.56,3.28,6.54,3.28,6.54h.13s-.26-4.85-.26-8.12v-24.56h9.36v46.83h-9.17l-15.97-25.87c-1.51-2.49-3.34-6.48-3.34-6.48h-.13s.26,4.92.26,8.18v24.17h-9.36v-46.83h-.01Zm63.27,0h18.28c12.51,0,20.56,10.08,20.56,23.9,0,7.59-2.56,14.28-7.46,18.4-3.47,2.88-7.99,4.51-13.89,4.51h-17.48v-46.83h0Zm16.84,38.64c8.9,0,12.38-5.44,12.38-14.74s-4.05-15.79-12.12-15.79h-7.59v30.53h7.33Zm45.59-38.64h9.49v46.83h-9.49v-46.83Zm35.11,0h9.63l15.59,26.13c1.51,2.56,3.28,6.54,3.28,6.54h.13s-.26-4.85-.26-8.12v-24.56h9.36v46.83h-9.17l-15.97-25.87c-1.51-2.49-3.34-6.48-3.34-6.48h-.13s.26,4.92.26,8.18v24.17h-9.36v-46.83h-.01Zm97.26,40.53h-.13c-3.21,5.36-7.59,7.28-13.16,7.28-7.07,0-12.58-2.56-16.43-6.82-3.87-4.33-6.1-10.35-6.1-17.43,0-7.79,2.75-14.61,7.66-19.12,3.8-3.47,8.77-5.36,15.07-5.36,11.79,0,18.53,6.48,20.04,15.66h-9.3c-1.05-4.51-4.51-7.79-10.54-7.79-8.84,0-13.23,7.33-13.23,16.64s5.05,16.56,13.1,16.56c7.28,0,12.05-5.44,12.05-10.61v-.26h-11.26v-7.33h19.71v24.89h-7.13l-.33-6.28h-.03Zm58.82-40.53h6.36l11.53,34.84c.72,2.16,1.84,6.28,1.84,6.28h.13s1.11-4.2,1.83-6.28l11.4-34.84h6.15l-16.43,46.83h-6.48l-16.31-46.83h-.01Zm62.62,0h33.07v5.18h-27.18v14.8h24.69v4.97h-24.69v16.43h27.97v5.44h-33.86v-46.83h0Zm56.13,0h37.07v5.18h-15.59v41.65h-5.9v-41.65h-15.59v-5.18Zm61.24,0h33.07v5.18h-27.18v14.8h24.69v4.97h-24.69v16.43h27.97v5.44h-33.86v-46.83h0Zm59.08,0h21.87c8.25,0,13.82,5.18,13.82,12.84,0,5.69-2.49,9.76-8.12,11.59v.2c4.77,1.7,6.28,4.97,6.74,11.92.52,7.53,1.31,9.43,2.16,10.02v.26h-6.36c-.98-.85-1.18-2.62-1.7-10.48-.46-6.87-3.21-9.3-9.49-9.3h-13.03v19.79h-5.9v-46.83Zm5.9,22.27h13.89c6.54,0,9.82-3.28,9.82-8.58,0-5.69-2.62-8.58-9.49-8.58h-14.21v17.15h-.01Zm55.42-22.27h5.9v46.83h-5.9v-46.83Zm33.14,0h6.23l21.35,32.55c1.57,2.43,3.41,6.02,3.41,6.02h.13v-38.58h5.51v46.83h-6.02l-21.48-32.61c-1.51-2.29-3.47-5.82-3.47-5.82h-.13v38.45h-5.51v-46.83h-.01Zm77.23,0h6.61l17.28,46.83h-6.41l-4.98-14.28h-18.66l-5.05,14.28h-6.02l17.23-46.83Zm-4.46,27.77h15.33l-5.36-15.72c-.92-2.62-2.1-6.61-2.1-6.61h-.13s-1.25,3.93-2.16,6.61l-5.56,15.72h-.01Zm51.75-27.77h21.87c8.25,0,13.82,5.18,13.82,12.84,0,5.69-2.49,9.76-8.12,11.59v.2c4.77,1.7,6.28,4.97,6.74,11.92.52,7.53,1.31,9.43,2.16,10.02v.26h-6.36c-.98-.85-1.18-2.62-1.7-10.48-.46-6.87-3.21-9.3-9.49-9.3h-13.03v19.79h-5.9v-46.83Zm5.9,22.27h13.89c6.54,0,9.82-3.28,9.82-8.58,0-5.69-2.62-8.58-9.49-8.58h-14.21v17.15h-.01Zm67.52,4.72l-16.97-26.99h6.54l13.43,22.27h.13l13.62-22.27h6.28l-17.15,27.12v19.71h-5.9v-19.84h.01Zm73.43-3.61c0-13.75,8.25-24.43,22.2-24.43,10.94,0,17.56,6.28,18.79,14.94h-5.77c-1.11-5.82-5.77-9.82-13.16-9.82-10.28,0-16.05,8.31-16.05,19.32s6.36,19.2,16.1,19.2c8.84,0,13.03-6.02,13.62-12.9h5.82c-.06,4.64-2.29,9.89-5.64,13.17-3.28,3.21-8.05,4.92-14.02,4.92-13.3,0-21.94-10.15-21.94-24.36l.03-.04Zm79.05-23.38h6.61l17.28,46.83h-6.41l-4.97-14.28h-18.66l-5.05,14.28h-6.02l17.23-46.83Zm-4.46,27.77h15.33l-5.36-15.72c-.92-2.62-2.1-6.61-2.1-6.61h-.13s-1.25,3.93-2.16,6.61l-5.56,15.72h-.01Zm51.75-27.77h21.87c8.25,0,13.82,5.18,13.82,12.84,0,5.69-2.49,9.76-8.12,11.59v.2c4.77,1.7,6.28,4.97,6.74,11.92.52,7.53,1.31,9.43,2.16,10.02v.26h-6.36c-.98-.85-1.18-2.62-1.7-10.48-.46-6.87-3.21-9.3-9.49-9.3h-13.03v19.79h-5.9v-46.83Zm5.9,22.27h13.89c6.54,0,9.82-3.28,9.82-8.58,0-5.69-2.62-8.58-9.49-8.58h-14.21v17.15h-.01Zm55.29-22.27h33.07v5.18h-27.18v14.8h24.69v4.97h-24.69v16.43h27.97v5.44h-33.86v-46.83h0Z"/>
</svg>